<svg width="40" height="40" viewBox="0 0 40 40" fill="none" xmlns="http://www.w3.org/2000/svg">
  <!-- Background circle -->
  <circle cx="20" cy="20" r="20" fill="#E8B794"/>
  
  <!-- Hair -->
  <path d="M8 20C8 12.8 13.3 7 20 7s12 5.8 12 13c0 2-0.5 3.8-1.3 5.4-1.2-0.8-2.6-1.4-4.2-1.4H15.5c-1.6 0-3 0.6-4.2 1.4C8.5 23.8 8 22 8 20z" fill="#8B4513"/>
  
  <!-- Face -->
  <circle cx="20" cy="20" r="10" fill="#F4C2A1"/>
  
  <!-- Eyes -->
  <circle cx="17" cy="18" r="1" fill="#2C1810"/>
  <circle cx="23" cy="18" r="1" fill="#2C1810"/>
  
  <!-- Eyebrows -->
  <path d="M15.5 16.5c1 0 2 0.2 2.5 0.5" stroke="#8B4513" stroke-width="0.8" fill="none"/>
  <path d="M21.5 17c0.5-0.3 1.5-0.5 2.5-0.5" stroke="#8B4513" stroke-width="0.8" fill="none"/>
  
  <!-- Nose -->
  <circle cx="20" cy="20" r="0.5" fill="#E8A085" opacity="0.6"/>
  
  <!-- Mouth -->
  <path d="M18.5 22.5c0.5 0.5 1 0.5 1.5 0.5s1-0 1.5-0.5" stroke="#B8715A" stroke-width="0.8" fill="none"/>
  
  <!-- Shirt/Clothing -->
  <path d="M10 30c0-3 2-8 10-8s10 5 10 8v10H10V30z" fill="#2E7D8A"/>
</svg>